<?xml version="1.0" standalone="no"?>
<!DOCTYPE svg PUBLIC "-//W3C//DTD SVG 20010904//EN"
 "http://www.w3.org/TR/2001/REC-SVG-20010904/DTD/svg10.dtd">
<svg version="1.0" xmlns="http://www.w3.org/2000/svg"
 width="512.000000pt" height="512.000000pt" viewBox="0 0 512.000000 512.000000"
 preserveAspectRatio="xMidYMid meet">
<metadata>
Created by potrace 1.14, written by Peter Selinger 2001-2017
</metadata>
<g transform="translate(0.000000,512.000000) scale(0.100000,-0.100000)"
fill="#000000" stroke="none">
<path d="M1965 5113 c-126 -14 -319 -60 -435 -103 -30 -11 -68 -26 -85 -32
-51 -19 -247 -122 -310 -163 -231 -148 -441 -341 -605 -556 -149 -194 -292
-457 -371 -679 -22 -63 -42 -122 -44 -130 -1 -8 -10 -40 -19 -70 -32 -111 -58
-247 -72 -365 -3 -33 -9 -69 -11 -80 -9 -35 -11 -528 -3 -590 5 -33 11 -82 14
-110 6 -45 20 -128 30 -180 107 -532 435 -1083 856 -1436 36 -29 67 -56 70
-59 14 -15 155 -114 230 -162 237 -152 598 -298 845 -342 17 -3 57 -11 90 -17
160 -29 278 -37 515 -34 135 2 259 6 275 8 17 3 55 8 85 11 468 59 922 251
1285 543 308 248 524 535 685 908 40 94 90 268 105 370 3 17 7 41 10 55 3 14
8 77 11 140 5 107 3 118 -19 160 -37 71 -129 111 -202 87 -16 -6 -66 -32 -110
-58 -184 -110 -479 -229 -640 -258 -33 -6 -71 -13 -85 -16 -123 -27 -587 -26
-631 1 -3 2 -21 6 -40 9 -105 18 -280 76 -404 135 -273 127 -488 303 -700 571
-77 98 -177 280 -235 429 -43 111 -94 304 -107 405 -10 79 -10 401 0 488 11
93 61 294 99 397 38 107 132 304 186 393 73 119 82 181 40 253 -35 59 -80 79
-183 80 -49 0 -103 -1 -120 -3z"/>
</g>
</svg>
